<svg width="64" height="64" viewBox="0 0 64 64" xmlns="http://www.w3.org/2000/svg">
  <defs>
    <!-- Wood gradient -->
    <linearGradient id="woodGradient" x1="0%" y1="0%" x2="100%" y2="0%">
      <stop offset="0%" style="stop-color:#8D6E63;stop-opacity:1" />
      <stop offset="25%" style="stop-color:#A1887F;stop-opacity:1" />
      <stop offset="50%" style="stop-color:#BCAAA4;stop-opacity:1" />
      <stop offset="75%" style="stop-color:#A1887F;stop-opacity:1" />
      <stop offset="100%" style="stop-color:#8D6E63;stop-opacity:1" />
    </linearGradient>
    
    <!-- Weathered wood gradient -->
    <linearGradient id="weatheredWood" x1="0%" y1="0%" x2="100%" y2="0%">
      <stop offset="0%" style="stop-color:#6D4C41;stop-opacity:1" />
      <stop offset="50%" style="stop-color:#8D6E63;stop-opacity:1" />
      <stop offset="100%" style="stop-color:#5D4037;stop-opacity:1" />
    </linearGradient>
    
    <!-- Wood texture filter -->
    <filter id="woodTexture">
      <feTurbulence baseFrequency="0.8" numOctaves="3" result="texture" />
      <feColorMatrix in="texture" type="saturate" values="0.4" />
      <feComponentTransfer>
        <feFuncA type="discrete" tableValues="0.1 .2 .3 .4 .5 .6" />
      </feComponentTransfer>
      <feComposite operator="multiply" in2="SourceGraphic" />
    </filter>
    
    <!-- Weathering effect -->
    <filter id="weathering">
      <feTurbulence baseFrequency="0.3" numOctaves="2" result="weather" />
      <feColorMatrix in="weather" type="saturate" values="0.2" />
      <feComposite operator="overlay" in2="SourceGraphic" />
    </filter>
  </defs>
  
  <!-- Main dock planks -->
  <rect x="0" y="8" width="64" height="12" fill="url(#woodGradient)" filter="url(#woodTexture)" />
  <rect x="0" y="22" width="64" height="12" fill="url(#weatheredWood)" filter="url(#weathering)" />
  <rect x="0" y="36" width="64" height="12" fill="url(#woodGradient)" filter="url(#woodTexture)" />
  <rect x="0" y="50" width="64" height="12" fill="url(#weatheredWood)" filter="url(#weathering)" />
  
  <!-- Plank separations -->
  <line x1="0" y1="20" x2="64" y2="20" stroke="#5D4037" stroke-width="1" opacity="0.8" />
  <line x1="0" y1="34" x2="64" y2="34" stroke="#5D4037" stroke-width="1" opacity="0.8" />
  <line x1="0" y1="48" x2="64" y2="48" stroke="#5D4037" stroke-width="1" opacity="0.8" />
  
  <!-- Wood grain details -->
  <path d="M5,12 Q20,10 35,12 Q50,14 60,12" stroke="rgba(93,64,55,0.4)" stroke-width="0.5" fill="none" />
  <path d="M3,16 Q25,14 45,16 Q58,18 62,16" stroke="rgba(93,64,55,0.3)" stroke-width="0.5" fill="none" />
  
  <path d="M8,26 Q22,24 38,26 Q52,28 58,26" stroke="rgba(93,64,55,0.4)" stroke-width="0.5" fill="none" />
  <path d="M2,30 Q28,28 48,30 Q60,32 64,30" stroke="rgba(93,64,55,0.3)" stroke-width="0.5" fill="none" />
  
  <path d="M6,40 Q24,38 42,40 Q56,42 62,40" stroke="rgba(93,64,55,0.4)" stroke-width="0.5" fill="none" />
  <path d="M4,44 Q26,42 46,44 Q58,46 64,44" stroke="rgba(93,64,55,0.3)" stroke-width="0.5" fill="none" />
  
  <path d="M7,54 Q21,52 39,54 Q53,56 59,54" stroke="rgba(93,64,55,0.4)" stroke-width="0.5" fill="none" />
  <path d="M1,58 Q27,56 47,58 Q61,60 64,58" stroke="rgba(93,64,55,0.3)" stroke-width="0.5" fill="none" />
  
  <!-- Nail/screw details -->
  <circle cx="8" cy="14" r="1" fill="#424242" opacity="0.8" />
  <circle cx="56" cy="14" r="1" fill="#424242" opacity="0.8" />
  <circle cx="8" cy="28" r="1" fill="#424242" opacity="0.8" />
  <circle cx="56" cy="28" r="1" fill="#424242" opacity="0.8" />
  <circle cx="8" cy="42" r="1" fill="#424242" opacity="0.8" />
  <circle cx="56" cy="42" r="1" fill="#424242" opacity="0.8" />
  <circle cx="8" cy="56" r="1" fill="#424242" opacity="0.8" />
  <circle cx="56" cy="56" r="1" fill="#424242" opacity="0.8" />
  
  <!-- Water stains and weathering marks -->
  <ellipse cx="20" cy="25" rx="8" ry="3" fill="rgba(93,64,55,0.2)" opacity="0.6" />
  <ellipse cx="45" cy="15" rx="6" ry="2" fill="rgba(93,64,55,0.3)" opacity="0.5" />
  <ellipse cx="35" cy="45" rx="10" ry="4" fill="rgba(93,64,55,0.2)" opacity="0.7" />
  <ellipse cx="15" cy="55" rx="7" ry="2.5" fill="rgba(93,64,55,0.3)" opacity="0.6" />
  
  <!-- Edge wear -->
  <rect x="0" y="8" width="64" height="2" fill="rgba(93,64,55,0.3)" opacity="0.5" />
  <rect x="0" y="62" width="64" height="2" fill="rgba(93,64,55,0.3)" opacity="0.5" />
</svg>